<svg version="1.1" id="Layer_1" xmlns="http://www.w3.org/2000/svg" xmlns:xlink="http://www.w3.org/1999/xlink" x="0px" y="0px"
	 width="100%" viewBox="0 0 410 401" enable-background="new 0 0 410 401" xml:space="preserve">
<path fill="#000000" opacity="1.000000" stroke="none" 
	d="
M153.000000,402.000000 
	C102.347809,402.000000 51.695618,402.000000 1.021712,402.000000 
	C1.021712,268.385986 1.021712,134.771988 1.021712,1.078992 
	C137.574921,1.078992 274.149902,1.078992 410.862427,1.078992 
	C410.862427,134.666580 410.862427,268.333252 410.862427,402.000000 
	C357.238464,402.000000 303.587067,402.000000 249.467850,401.532074 
	C249.333298,394.646942 249.578430,388.223633 250.021896,381.814056 
	C250.598404,373.481201 250.852753,365.087006 252.093323,356.846832 
	C255.196716,336.233032 260.916046,316.432953 271.331879,298.136536 
	C280.944824,281.250488 292.531128,265.890472 305.769196,251.723190 
	C309.256073,247.991577 312.672211,244.193817 316.159607,240.462723 
	C321.575562,234.668396 326.848541,228.725006 332.513855,223.183945 
	C337.307770,218.495132 342.942688,214.639099 347.546692,209.789200 
	C355.681915,201.219528 363.865784,192.590805 370.985626,183.195908 
	C376.655243,175.714661 381.153168,167.252136 385.467255,158.863190 
	C389.792389,150.452682 389.187653,141.083893 389.011322,131.906372 
	C388.891052,125.647339 383.459595,122.259621 378.055420,125.567604 
	C373.658356,128.259125 369.548401,131.518219 365.661835,134.925659 
	C356.128906,143.283356 346.009888,150.684586 334.140503,155.381638 
	C320.498230,160.780334 312.180145,160.085571 303.663879,149.807571 
	C299.933929,145.306000 297.712463,139.119888 296.177979,133.334808 
	C293.828400,124.476868 292.854004,115.263885 290.934631,106.278778 
	C289.609497,100.075439 287.475769,94.081200 281.288300,90.859993 
	C278.898865,89.616043 276.054688,88.573692 275.065979,92.448235 
	C273.831635,97.285339 272.347107,102.196884 272.126343,107.128029 
	C271.501282,121.091347 267.481323,133.987000 261.876434,146.666519 
	C255.469177,161.161194 249.505753,175.866974 243.830765,190.665604 
	C239.418716,202.170914 233.341431,212.417664 224.484283,221.019913 
	C211.507004,233.623718 189.860428,233.667068 180.966492,216.206131 
	C172.702789,199.982513 165.898407,182.977402 159.165405,166.032715 
	C156.772141,160.009659 157.203506,152.899948 155.057281,146.734726 
	C151.750153,137.234604 147.174927,128.183914 143.443375,118.820717 
	C141.021942,112.744843 139.343246,106.372047 136.898209,100.307060 
	C136.194595,98.561714 133.961700,96.271103 132.471008,96.300659 
	C130.632141,96.337135 127.995407,98.142441 127.184364,99.876160 
	C125.031235,104.478767 123.040482,109.336708 122.122734,114.303299 
	C119.646637,127.703232 114.988731,140.278000 108.851646,152.335068 
	C107.425766,155.136398 105.547752,158.419754 102.976646,159.788086 
	C96.159508,163.416107 88.469780,163.473663 82.062866,159.329315 
	C70.955368,152.144394 60.352543,144.151489 49.787014,136.167969 
	C44.311832,132.030823 39.547527,126.960289 34.131805,122.734726 
	C29.779285,119.338722 25.774824,120.672081 22.926970,125.429283 
	C17.298304,134.831696 18.633610,145.181885 22.743490,153.645142 
	C28.528252,165.557373 36.233341,176.904190 44.886589,186.972046 
	C58.578339,202.902084 73.845451,217.469589 88.232475,232.813797 
	C96.543526,241.677795 105.273781,250.334885 112.306503,260.164612 
	C121.268311,272.690674 130.279251,285.619385 136.406036,299.626740 
	C144.318253,317.716034 149.298584,337.122009 150.892960,357.006592 
	C152.092316,371.964539 152.332718,386.999390 153.000000,402.000000 
z"/>
<path fill="#FFFFFF" opacity="1.000000" stroke="none" 
	d="
M153.468658,402.000000 
	C152.332718,386.999390 152.092316,371.964539 150.892960,357.006592 
	C149.298584,337.122009 144.318253,317.716034 136.406036,299.626740 
	C130.279251,285.619385 121.268311,272.690674 112.306503,260.164612 
	C105.273781,250.334885 96.543526,241.677795 88.232475,232.813797 
	C73.845451,217.469589 58.578339,202.902084 44.886589,186.972046 
	C36.233341,176.904190 28.528252,165.557373 22.743490,153.645142 
	C18.633610,145.181885 17.298304,134.831696 22.926970,125.429283 
	C25.774824,120.672081 29.779285,119.338722 34.131805,122.734726 
	C39.547527,126.960289 44.311832,132.030823 49.787014,136.167969 
	C60.352543,144.151489 70.955368,152.144394 82.062866,159.329315 
	C88.469780,163.473663 96.159508,163.416107 102.976646,159.788086 
	C105.547752,158.419754 107.425766,155.136398 108.851646,152.335068 
	C114.988731,140.278000 119.646637,127.703232 122.122734,114.303299 
	C123.040482,109.336708 125.031235,104.478767 127.184364,99.876160 
	C127.995407,98.142441 130.632141,96.337135 132.471008,96.300659 
	C133.961700,96.271103 136.194595,98.561714 136.898209,100.307060 
	C139.343246,106.372047 141.021942,112.744843 143.443375,118.820717 
	C147.174927,128.183914 151.750153,137.234604 155.057281,146.734726 
	C157.203506,152.899948 156.772141,160.009659 159.165405,166.032715 
	C165.898407,182.977402 172.702789,199.982513 180.966492,216.206131 
	C189.860428,233.667068 211.507004,233.623718 224.484283,221.019913 
	C233.341431,212.417664 239.418716,202.170914 243.830765,190.665604 
	C249.505753,175.866974 255.469177,161.161194 261.876434,146.666519 
	C267.481323,133.987000 271.501282,121.091347 272.126343,107.128029 
	C272.347107,102.196884 273.831635,97.285339 275.065979,92.448235 
	C276.054688,88.573692 278.898865,89.616043 281.288300,90.859993 
	C287.475769,94.081200 289.609497,100.075439 290.934631,106.278778 
	C292.854004,115.263885 293.828400,124.476868 296.177979,133.334808 
	C297.712463,139.119888 299.933929,145.306000 303.663879,149.807571 
	C312.180145,160.085571 320.498230,160.780334 334.140503,155.381638 
	C346.009888,150.684586 356.128906,143.283356 365.661835,134.925659 
	C369.548401,131.518219 373.658356,128.259125 378.055420,125.567604 
	C383.459595,122.259621 388.891052,125.647339 389.011322,131.906372 
	C389.187653,141.083893 389.792389,150.452682 385.467255,158.863190 
	C381.153168,167.252136 376.655243,175.714661 370.985626,183.195908 
	C363.865784,192.590805 355.681915,201.219528 347.546692,209.789200 
	C342.942688,214.639099 337.307770,218.495132 332.513855,223.183945 
	C326.848541,228.725006 321.575562,234.668396 316.159607,240.462723 
	C312.672211,244.193817 309.256073,247.991577 305.769196,251.723190 
	C292.531128,265.890472 280.944824,281.250488 271.331879,298.136536 
	C260.916046,316.432953 255.196716,336.233032 252.093323,356.846832 
	C250.852753,365.087006 250.598404,373.481201 250.021896,381.814056 
	C249.578430,388.223633 249.333298,394.646942 249.000000,401.532074 
	C217.312439,402.000000 185.624878,402.000000 153.468658,402.000000 
z"/>
</svg>